<svg xmlns="http://www.w3.org/2000/svg" xmlns:xlink="http://www.w3.org/1999/xlink" viewBox="0 0 500 500" width="500" height="500" style="width: 100%; height: 100%; transform: translate3d(0px, 0px, 0px);" preserveAspectRatio="xMidYMid meet"><defs><clipPath id="__lottie_element_10"><rect width="500" height="500" x="0" y="0"/></clipPath><clipPath id="__lottie_element_12"><path d="M0,0 L500,0 L500,500 L0,500z"/></clipPath></defs><g clip-path="url(#__lottie_element_10)"><g clip-path="url(#__lottie_element_12)" style="display: block;" transform="matrix(1,0,0,1,0,0)" opacity="1"><g class="primary design" style="display: block;" transform="matrix(20.669750213623047,2.57882022857666,-2.57882022857666,20.669750213623047,291.2234802246094,264.2393493652344)" opacity="1"><g opacity="1" transform="matrix(1,0,0,1,0,0)"><path class="primary" fill="rgb(18,19,49)" fill-opacity="1" d=" M7.989999771118164,-10 C7.989999771118164,-10 -5.989999771118164,-10 -5.989999771118164,-10 C-7.099999904632568,-10 -8,-9.100000381469727 -8,-7.989999771118164 C-8,-7.989999771118164 -8,6.150000095367432 -8,6.150000095367432 C-8,6.150000095367432 -8,7 -8,7 C-8,7 -8,7.96999979019165 -8,7.96999979019165 C-8,9.09000015258789 -7.090000152587891,10 -5.960000038146973,10 C-5.960000038146973,10 6.050000190734863,10 6.050000190734863,10 C7.130000114440918,10 8,9.130000114440918 8,8.050000190734863 C8,8.050000190734863 8,7 8,7 C8,7 8,3 8,3 C8,3 8,-9.989999771118164 8,-9.989999771118164 C8,-9.989999771118164 7.989999771118164,-10 7.989999771118164,-10z M4,-4 C4,-4 -3,-4 -3,-4 C-3.549999952316284,-4 -4,-4.449999809265137 -4,-5 C-4,-5.550000190734863 -3.549999952316284,-6 -3,-6 C-3,-6 4,-6 4,-6 C4.550000190734863,-6 5,-5.550000190734863 5,-5 C5,-4.449999809265137 4.550000190734863,-4 4,-4z M5.840000152587891,7.840000152587891 C5.840000152587891,7.840000152587891 -5.840000152587891,7.840000152587891 -5.840000152587891,7.840000152587891 C-5.840000152587891,7.840000152587891 -5.840000152587891,7 -5.840000152587891,7 C-5.840000152587891,7 -5.840000152587891,6.150000095367432 -5.840000152587891,6.150000095367432 C-5.840000152587891,5.900000095367432 -5.75,5.670000076293945 -5.590000152587891,5.5 C-5.420000076293945,5.289999961853027 -5.150000095367432,5.159999847412109 -4.849999904632568,5.159999847412109 C-4.849999904632568,5.159999847412109 5.840000152587891,5.159999847412109 5.840000152587891,5.159999847412109 C5.840000152587891,5.159999847412109 5.840000152587891,5.5 5.840000152587891,5.5 C5.840000152587891,5.5 5.840000152587891,7 5.840000152587891,7 C5.840000152587891,7 5.840000152587891,7.840000152587891 5.840000152587891,7.840000152587891z"/></g></g></g></g></svg>